<?xml version="1.0" encoding="UTF-8"?>
<svg xmlns="http://www.w3.org/2000/svg" xmlns:xlink="http://www.w3.org/1999/xlink" id="Group_110" data-name="Group 110" width="30.049" height="28.838" viewBox="0 0 30.049 28.838">
  <defs>
    <clipPath id="clip-path">
      <rect id="Rectangle_146" data-name="Rectangle 146" width="30.049" height="28.838" transform="translate(0 0)" fill="#a3a2a2"></rect>
    </clipPath>
  </defs>
  <path id="Path_293" data-name="Path 293" d="M5.678,8.193l9.358-5.188L24.09,8.3v9.969H5.678ZM15.029,0,.735,7.942v2.781H3.118v9.725H26.743V10.819h2.183V7.842Z" fill="#a3a2a2"></path>
  <path id="Path_294" data-name="Path 294" d="M.23,20.989v3.6H2.11v-.693H1.058v-.8h.886V22.4H1.058v-.715H2.07v-.694Z" fill="#a3a2a2"></path>
  <g id="Group_109" data-name="Group 109">
    <g id="Group_108" data-name="Group 108" clip-path="url(#clip-path)">
      <path id="Path_295" data-name="Path 295" d="M2.57,21.971a.967.967,0,0,1,1.066-1.04A.968.968,0,0,1,4.7,21.971V23.6a.985.985,0,0,1-.468.891l.319.518-.67.067c-.072-.153-.162-.3-.243-.436A.981.981,0,0,1,2.57,23.6Zm.828,1.7c0,.095,0,.329.238.329s.239-.234.239-.329V21.9c0-.121,0-.328-.239-.328s-.238.207-.238.328Z" fill="#a3a2a2"></path>
      <path id="Path_296" data-name="Path 296" d="M5.162,20.989H5.99v2.624c0,.193,0,.364.238.364s.239-.171.239-.364V20.989H7.3V23.6a.979.979,0,0,1-1.067,1.04A.978.978,0,0,1,5.162,23.6Z" fill="#a3a2a2"></path>
      <path id="Path_297" data-name="Path 297" d="M8.267,20.99h1.1l.675,3.595H9.171L9.1,23.947H8.514l-.085.638H7.6ZM8.6,23.307h.414L8.82,21.548H8.811Z" fill="#a3a2a2"></path>
      <path id="Path_298" data-name="Path 298" d="M10.346,24.585h1.729v-.693h-.9v-2.9h-.828Z" fill="#a3a2a2"></path>
      <path id="Path_299" data-name="Path 299" d="M13.289,24.585h.828v-1.53h.477v1.53h.828v-3.6h-.828v1.346h-.477V20.989h-.828Z" fill="#a3a2a2"></path>
      <path id="Path_300" data-name="Path 300" d="M15.881,21.971a.967.967,0,0,1,1.066-1.04.968.968,0,0,1,1.067,1.04V23.6a.979.979,0,0,1-1.067,1.04.979.979,0,0,1-1.066-1.04Zm.828,1.7c0,.095,0,.329.238.329s.239-.234.239-.329V21.9c0-.121,0-.328-.239-.328s-.238.207-.238.328Z" fill="#a3a2a2"></path>
      <path id="Path_301" data-name="Path 301" d="M18.473,20.989H19.3v2.624c0,.193,0,.364.238.364s.239-.171.239-.364V20.989h.828V23.6a1.067,1.067,0,0,1-2.133,0Z" fill="#a3a2a2"></path>
      <path id="Path_302" data-name="Path 302" d="M21.834,23.365v.266c0,.193.045.374.279.374a.265.265,0,0,0,.288-.28c0-.315-.328-.526-.657-.765-.333-.275-.666-.472-.666-1.022,0-.706.4-1.008,1.058-1.008.719,0,1.035.352,1.035.9v.324H22.4v-.193c0-.18-.026-.4-.26-.4a.256.256,0,0,0-.283.27c0,.215.35.463.688.715.306.27.689.446.689,1.17,0,.347-.261.918-1.125.918-.82,0-1.072-.517-1.072-.89v-.388Z" fill="#a3a2a2"></path>
      <rect id="Rectangle_142" data-name="Rectangle 142" width="0.828" height="3.596" transform="translate(23.684 20.989)" fill="#a3a2a2"></rect>
      <path id="Path_303" data-name="Path 303" d="M25,20.989h.9l.666,2.12h.009v-2.12h.8v3.6h-.9l-.671-2.223H25.8v2.223H25Z" fill="#a3a2a2"></path>
      <path id="Path_304" data-name="Path 304" d="M27.837,21.971a.968.968,0,0,1,1.067-1.04c.563,0,1.067.207,1.067.882v.4h-.788v-.36c0-.18-.076-.283-.261-.283-.221,0-.257.215-.257.328v1.777c0,.095,0,.329.239.329.184,0,.265-.086.265-.27v-.464h-.292V22.6h1.094v1.98h-.725v-.293h-.009a.681.681,0,0,1-.639.352c-.594,0-.761-.495-.761-1.04Z" fill="#a3a2a2"></path>
      <path id="Path_305" data-name="Path 305" d="M0,26.165c0-.7.542-1.04,1.284-1.04s1.284.338,1.284,1.04V27.8c0,.639-.493,1.04-1.284,1.04S0,28.437,0,27.8Zm1,1.7c0,.095,0,.329.287.329s.287-.234.287-.329V26.093c0-.121,0-.328-.287-.328S1,25.972,1,26.093Z" fill="#a3a2a2"></path>
      <path id="Path_306" data-name="Path 306" d="M3.012,25.184H4.079c1.095,0,1.544.153,1.544,1.093,0,.527-.156,1.076-1.05,1.076H4.009v1.426h-1Zm1,1.53h.249c.32,0,.369-.131.369-.455,0-.436-.168-.436-.5-.436H4.009Z" fill="#a3a2a2"></path>
      <path id="Path_307" data-name="Path 307" d="M6.024,25.184H7.091c1.095,0,1.545.153,1.545,1.093,0,.527-.157,1.076-1.051,1.076H7.022v1.426h-1Zm1,1.53H7.27c.32,0,.369-.131.369-.455,0-.436-.168-.436-.5-.436H7.022Z" fill="#a3a2a2"></path>
      <path id="Path_308" data-name="Path 308" d="M9.037,26.165c0-.7.541-1.04,1.284-1.04s1.284.338,1.284,1.04V27.8c0,.639-.493,1.04-1.284,1.04s-1.284-.4-1.284-1.04Zm1,1.7c0,.095,0,.329.287.329s.287-.234.287-.329V26.093c0-.121,0-.328-.287-.328s-.287.207-.287.328Z" fill="#a3a2a2"></path>
      <path id="Path_309" data-name="Path 309" d="M12.05,28.779h1V27.227h.185c.281,0,.379.09.379.3V28.1c0,.238,0,.562.114.679h.986c-.114-.117-.1-.441-.1-.679v-.635c0-.3-.228-.513-.579-.571v-.009c.53-.135.6-.409.6-.832,0-.649-.373-.869-1.262-.869H12.05Zm1-2.983h.2c.391,0,.391.144.391.4,0,.234,0,.423-.342.423h-.244Z" fill="#a3a2a2"></path>
      <path id="Path_310" data-name="Path 310" d="M14.8,25.184h2.286v.693h-.644v2.9h-1v-2.9H14.8Z" fill="#a3a2a2"></path>
      <path id="Path_311" data-name="Path 311" d="M17.37,25.184h1v2.624c0,.193,0,.364.287.364s.287-.171.287-.364V25.184h1V27.8c0,.64-.493,1.04-1.284,1.04s-1.284-.4-1.284-1.04Z" fill="#a3a2a2"></path>
      <path id="Path_312" data-name="Path 312" d="M20.383,25.184h1.089l.8,2.12h.01v-2.12h.965v3.6H22.165l-.806-2.223h-.011V28.78h-.965Z" fill="#a3a2a2"></path>
      <rect id="Rectangle_143" data-name="Rectangle 143" width="0.997" height="3.596" transform="translate(23.726 25.183)" fill="#a3a2a2"></rect>
      <path id="Path_313" data-name="Path 313" d="M25.037,25.184h2.286v.693h-.644v2.9h-1v-2.9h-.645Z" fill="#a3a2a2"></path>
      <path id="Path_314" data-name="Path 314" d="M27.426,25.184h1.029l.277,1.215h.01l.293-1.215h1.014L29.236,27.3V28.78h-1V27.358Z" fill="#a3a2a2"></path>
      <rect id="Rectangle_144" data-name="Rectangle 144" width="9.46" height="2.746" transform="translate(10.168 9.694)" fill="#a3a2a2"></rect>
      <rect id="Rectangle_145" data-name="Rectangle 145" width="9.46" height="2.746" transform="translate(10.22 13.457)" fill="#a3a2a2"></rect>
    </g>
  </g>
</svg>
