<?xml version="1.0" encoding="UTF-8"?>
<svg xmlns="http://www.w3.org/2000/svg" xmlns:xlink="http://www.w3.org/1999/xlink" width="25.208" height="27.679" viewBox="0 0 25.208 27.679">
  <defs>
    <clipPath id="clip-path">
      <path id="Path_317" data-name="Path 317" d="M0,14.379H25.208V-13.3H0Z" transform="translate(0 13.3)" fill="#a3a2a2"></path>
    </clipPath>
  </defs>
  <g id="Group_114" data-name="Group 114" transform="translate(0 13.3)">
    <g id="Group_113" data-name="Group 113" transform="translate(0 -13.3)" clip-path="url(#clip-path)">
      <g id="Group_111" data-name="Group 111" transform="translate(4.361 -0.002)">
        <path id="Path_315" data-name="Path 315" d="M10.814,11.978a1.288,1.288,0,0,0-1.536-.968l-2.017.443L4.406,4.308A1.288,1.288,0,0,0,3.21,3.5H-5.4L-5.672.543H.892A1.281,1.281,0,0,0,2.18-.731,1.281,1.281,0,0,0,.892-2.006h-6.8l-.308-3.311A2.941,2.941,0,0,0-4.07-8.139,2.954,2.954,0,0,0-7.035-11.08,2.954,2.954,0,0,0-10-8.139,2.921,2.921,0,0,0-8.848-5.817l.995,10.709A1.281,1.281,0,0,0-6.571,6.052h8.9L5.272,13.4a1.287,1.287,0,0,0,1.475.774L9.836,13.5a1.276,1.276,0,0,0,.978-1.521" transform="translate(10.003 11.08)" fill="#a3a2a2"></path>
      </g>
      <g id="Group_112" data-name="Group 112" transform="translate(0.001 9.983)">
        <path id="Path_316" data-name="Path 316" d="M5.036,7.868A7.1,7.1,0,0,1-2.086.815,7,7,0,0,1,.11-4.267L-.163-7.278A9.578,9.578,0,0,0-4.658.815a9.659,9.659,0,0,0,9.694,9.6A9.707,9.707,0,0,0,12.9,6.405L11.716,3.234a7.123,7.123,0,0,1-6.68,4.635" transform="translate(4.658 7.278)" fill="#a3a2a2"></path>
      </g>
    </g>
  </g>
</svg>
